<svg id="Capa_1" data-name="Capa 1" xmlns="http://www.w3.org/2000/svg" viewBox="0 0 841.89 595.28"><defs><style>.cls-1{fill:#222221;}</style></defs><path class="cls-1" d="M29.81,267.5H72.46v4.64H62.27a4.63,4.63,0,0,0-3.58,1.27,5.82,5.82,0,0,0-1.15,4v72.2A4.3,4.3,0,0,0,59,353.28q1.45,1.08,5.87,1.08H77.78q10.31,0,16.86-6.84t9.53-23.72h4.35L106.41,359H29.81v-4.64h7.52c2.57,0,4.38-.48,5.41-1.45s1.56-2.53,1.56-4.67V276.78A4.42,4.42,0,0,0,43,273.32a5.54,5.54,0,0,0-3.85-1.18H29.81Z"/><path class="cls-1" d="M169.06,330.42H127.35q.3,13.24,5,18.68a17.25,17.25,0,0,0,13.62,6.13q12.18,0,19.58-13.8l4,1.73q-9.08,17.58-26.24,17.57a26,26,0,0,1-19.67-8.41q-8-8.42-8-21.53,0-14.1,7.86-22.8a25.12,25.12,0,0,1,19.37-8.69,24.79,24.79,0,0,1,14.61,4.33,26.14,26.14,0,0,1,9.26,12.44A42.23,42.23,0,0,1,169.06,330.42ZM127.35,326h25.24a4.26,4.26,0,0,0,3.48-1.52q1.25-1.51,1.24-5.16a16.73,16.73,0,0,0-4.26-11.57A13,13,0,0,0,143,303q-6.47,0-11,5.76T127.35,326Z"/><path class="cls-1" d="M281.94,274.62l4.29-8.85h3.92l1.61,36.81H287.6q-4.11-15.52-10.32-22.89-7.71-9.21-18.4-9.22-11.56,0-18.84,10.27t-7.28,34.77q0,20.6,8.33,31.43,7.09,9.15,19.9,9.15A26.36,26.36,0,0,0,279.77,349q7.58-7.15,9.88-21.56h4.41q-1.92,16.33-11.25,25.12t-23.5,8.78a40.38,40.38,0,0,1-21.11-5.75A41.5,41.5,0,0,1,222.85,339a49.5,49.5,0,0,1-5.75-23.67A57.22,57.22,0,0,1,223,289.65q5.94-12,15.2-18a35.85,35.85,0,0,1,20-6,33.31,33.31,0,0,1,11.57,2.05A48.48,48.48,0,0,1,281.94,274.62Z"/><path class="cls-1" d="M331.35,299.3a26.08,26.08,0,0,1,19.74,8.45q8,8.44,8,22.24,0,9.52-3.57,16.24a26.68,26.68,0,0,1-10.2,10.61A27.71,27.71,0,0,1,331,360.73a25.11,25.11,0,0,1-19.18-8.53Q304,343.65,304,330.05t7.9-22.21A25.46,25.46,0,0,1,331.35,299.3Zm0,4.39q-7,0-11.43,6.28t-4.48,19.83q0,13.8,4.44,20.17t11.47,6.37q7.27,0,11.79-6.37t4.5-20.85q0-13.42-4.44-19.43A14,14,0,0,0,331.35,303.69Z"/><path class="cls-1" d="M389,266.45v84a3.32,3.32,0,0,0,1.06,2.66,5.86,5.86,0,0,0,3.79,1.24H400V359H367v-4.64h5.84a5.88,5.88,0,0,0,4.26-1.36,5.13,5.13,0,0,0,1.4-3.84V278.64a5.61,5.61,0,0,0-1.68-4.52,8.36,8.36,0,0,0-5.65-2H366V267.5Z"/><path class="cls-1" d="M428.63,266.45v84a3.32,3.32,0,0,0,1.06,2.66,5.84,5.84,0,0,0,3.79,1.24h6.15V359h-33v-4.64h5.84a5.88,5.88,0,0,0,4.26-1.36,5.13,5.13,0,0,0,1.4-3.84V278.64a5.61,5.61,0,0,0-1.68-4.52,8.36,8.36,0,0,0-5.65-2h-5.23V267.5Z"/><path class="cls-1" d="M500.86,330.42H459.14q.32,13.24,5,18.68a17.24,17.24,0,0,0,13.61,6.13q12.18,0,19.58-13.8l4.05,1.73q-9.09,17.58-26.24,17.57a26.07,26.07,0,0,1-19.68-8.41q-8-8.42-8-21.53,0-14.1,7.87-22.8a25.1,25.1,0,0,1,19.36-8.69,24.77,24.77,0,0,1,14.61,4.33,26.09,26.09,0,0,1,9.27,12.44A42.23,42.23,0,0,1,500.86,330.42ZM459.14,326h25.24a4.28,4.28,0,0,0,3.49-1.52c.82-1,1.24-2.73,1.24-5.16a16.73,16.73,0,0,0-4.26-11.57,13.07,13.07,0,0,0-10-4.77q-6.46,0-11,5.76T459.14,326Z"/><path class="cls-1" d="M553.88,341.8l4,1.18q-4.84,17.76-21.39,17.75-12.12,0-19.83-8T509,331.53q0-15.33,8.46-23.78a27.22,27.22,0,0,1,19.89-8.45q8.58,0,14.18,4.7t5.59,10.46a8.09,8.09,0,0,1-2.08,5.72,6.66,6.66,0,0,1-9.67.35,6.31,6.31,0,0,1-1.93-4.63,7.88,7.88,0,0,1,2.12-5.18,3.34,3.34,0,0,0,1-1.85c0-1.19-.81-2.35-2.42-3.48a11.35,11.35,0,0,0-6.59-1.7q-7.59,0-11.5,5.5-5.6,8-5.6,21,0,12.42,5,18.82a15.42,15.42,0,0,0,12.69,6.39Q548.72,355.41,553.88,341.8Z"/><path class="cls-1" d="M580.72,277.4h4.17V301h18.84v5.7H584.89v37.18c0,3.21.77,5.68,2.3,7.39a7.5,7.5,0,0,0,5.84,2.57,8.86,8.86,0,0,0,7.22-3.9c2-2.6,3.15-6.89,3.48-12.87h4.16q-.37,11.56-5.28,17.17a16.19,16.19,0,0,1-12.75,5.6q-7.22,0-11.28-3.93a13.64,13.64,0,0,1-4.07-10.3V306.73H564.37v-4.34q6.93-1.17,10.55-5.75Q580.29,289.77,580.72,277.4Z"/><path class="cls-1" d="M669.06,330.42H627.34q.31,13.24,5,18.68a17.28,17.28,0,0,0,13.62,6.13q12.18,0,19.58-13.8l4,1.73q-9.07,17.58-26.23,17.57a26.06,26.06,0,0,1-19.68-8.41q-8-8.42-8-21.53,0-14.1,7.87-22.8a25.09,25.09,0,0,1,19.36-8.69,24.77,24.77,0,0,1,14.61,4.33,26.15,26.15,0,0,1,9.27,12.44A42.48,42.48,0,0,1,669.06,330.42ZM627.34,326h25.24a4.26,4.26,0,0,0,3.48-1.52q1.25-1.51,1.25-5.16a16.73,16.73,0,0,0-4.26-11.57A13.07,13.07,0,0,0,643,303q-6.46,0-11,5.76T627.34,326Z"/><path class="cls-1" d="M697.52,300V338.4q0,7.05,3.57,10.89a12,12,0,0,0,9.21,3.83,15.1,15.1,0,0,0,11.82-5.6,20.61,20.61,0,0,0,4.87-14V311.8a5.47,5.47,0,0,0-2.15-4.61q-2.15-1.63-8.23-1.83V301l20.45-1v47.58a6.63,6.63,0,0,0,1.86,5,7.35,7.35,0,0,0,5.23,1.76h3.67v4.15l-19.59.43L727,347.56a42.32,42.32,0,0,1-10.49,9.21,20.86,20.86,0,0,1-10.68,3.1,18.07,18.07,0,0,1-13.22-5.26q-5.4-5.21-5.4-17.63V311.8a5.64,5.64,0,0,0-2.68-5.07c-1.24-.83-3.79-1.28-7.64-1.37V301Z"/><path class="cls-1" d="M753.9,301l21-1v23.45q3.36-11.56,8.08-17.51T794.62,300a10.11,10.11,0,0,1,7.55,2.88,10.49,10.49,0,0,1,2.83,7.7,8.86,8.86,0,0,1-1.9,6.06,6,6,0,0,1-4.75,2.17,5.83,5.83,0,0,1-4.51-1.86,7.08,7.08,0,0,1-1.71-5,7.69,7.69,0,0,1,1-3.83,7.37,7.37,0,0,0,.93-1.92c0-.62-.4-.93-1.18-.93q-2.55,0-5.79,3a26.79,26.79,0,0,0-6.9,11.38q-3.72,11.27-3.73,18V350a3.77,3.77,0,0,0,1.5,3.22q1.49,1.11,5.09,1.11h7.4V359H754.27v-4.64h5.78a7.17,7.17,0,0,0,4.41-1.14,3.39,3.39,0,0,0,1.5-2.76V313.53c0-2.8-.6-4.86-1.81-6.16a6.7,6.7,0,0,0-5.16-1.94H753.9Z"/></svg>