<svg id="Capa_1" data-name="Capa 1" xmlns="http://www.w3.org/2000/svg" viewBox="0 0 841.89 595.28"><defs><style>.cls-1{fill:#c5c5c5;}</style></defs><path class="cls-1" d="M378.48,146.75h0l.06,0Zm0,0h0l.06,0Zm252.59,33.36a71.05,71.05,0,0,0-55.4-4.43q-3.46-12.26-6.9-24.49l-13.9-49.33c-.6-2.12-1.19-4.25-1.79-6.38a17.21,17.21,0,0,0,3.67-3.3,19.14,19.14,0,0,0-18.4-31.28c-8.85,1.6-15.1,10-15.21,18.74A19.5,19.5,0,0,0,536,97.72a17.62,17.62,0,0,0,5.38,1.07q3.66,13,7.33,26,5.92,21,11.83,41.93l-9.74-8-40.1-33.12L505,120.92a19,19,0,0,0-1-17.25,19.49,19.49,0,0,0-20.44-9c-8.85,1.6-15.08,10-15.21,18.75a19.5,19.5,0,0,0,12.85,18.07A19.09,19.09,0,0,0,497.06,130q10.45,8.66,20.94,17.3l40.09,33.12,2.78,2.29c-1.3.84-2.58,1.71-3.83,2.66a71.38,71.38,0,0,0-23,28.88,138.26,138.26,0,0,0-43.67-12.38A159.63,159.63,0,0,0,466,201q-6.68-9.93-13.36-19.83c-9.44-14-21.46-26-36.32-34.26a102.84,102.84,0,0,0-143.55,46.64q-1,2.19-1.89,4.44a100.19,100.19,0,0,0-44.92,45.7C211.48,273.93,213,310.33,230.67,339a101,101,0,0,0,35.64,34.57.93.93,0,0,1,.1.05c-2.28,21.93.61,44.12,10.52,63.94l-18.66,12.15c-1.13.72-2.24,1.46-3.37,2.18-2.65,1.74-4,5.47-2.18,8.32,1.73,2.66,5.48,4,8.33,2.18l22-14.29a105.62,105.62,0,0,0,35.69,33.09c16.65,9.46,35.4,14.49,54.38,16.2,20.67,1.87,41.7-.47,61.72-5.69a223,223,0,0,0,62.51-27.38c2.46-1.55,4.9-3.16,7.31-4.8,24.47-16.81,45.92-38,62.06-63,14.14-21.94,23.94-46.9,26.6-72.95.42-4.08.61-8.18.63-12.29a69.78,69.78,0,0,0,40.44-9.84A71,71,0,0,0,663.29,267,68.78,68.78,0,0,0,668,241.74C667.94,216.25,653.67,192.08,631.07,180.11ZM542.31,87a7.4,7.4,0,1,1,7.39-7.4A7.39,7.39,0,0,1,542.31,87Zm-54.79,33.79a7.4,7.4,0,1,1,7.4-7.39A7.39,7.39,0,0,1,487.52,120.83Zm-194.2,61.58c.25-.32.5-.66.75-1,0,0,0,0,0,0s0-.05.06-.07a.49.49,0,0,1,.08-.12l.32-.43c.71-.87,1.42-1.75,2.16-2.61,1.36-1.58,2.76-3.12,4.22-4.63a98.14,98.14,0,0,1,9.46-8.54l.27-.19,0,0c.39-.28.78-.59,1.16-.86.91-.67,1.83-1.32,2.75-1.95,1.72-1.18,3.49-2.31,5.28-3.36A97.88,97.88,0,0,1,331,152.92l.61-.26c.53-.21,1.06-.42,1.59-.61,1-.38,2-.74,3-1.09,2.07-.7,4.18-1.36,6.3-1.93s4.12-1,6.21-1.46c1.05-.2,2.11-.4,3.16-.57l1.46-.23.68-.1h.17a97.75,97.75,0,0,1,13-.71c2.31,0,4.6.14,6.91.33,1,.08,2.07.2,3.1.31.19,0,1,.14,1.22.16l.06,0,0,0L380,147a97.45,97.45,0,0,1,13.87,3.3c2.18.7,4.34,1.46,6.46,2.31.36.15.74.31,1.1.44,0,0,.83.38,1.08.49,1,.46,2.06.93,3.07,1.43a94.87,94.87,0,0,1,11.87,6.91c.92.62,1.83,1.28,2.74,1.93l1.23.93.16.11.43.36c1.8,1.43,3.57,2.95,5.26,4.5a97,97,0,0,1,9.13,9.67c.39.46.77.94,1.14,1.39l.29.39c.73,1,1.43,1.92,2.13,2.89.51.74,1,1.48,1.51,2.23L452,202a197,197,0,0,0-38.93,8.58,221.46,221.46,0,0,0-23.74,9.22,98.26,98.26,0,0,0-23.86-19.2c-1.86-1.08-3.77-2.09-5.7-3l-.27-.14c-.77-.38-1.53-.74-2.3-1.09l-1.94-.86a.93.93,0,0,1-.2-.1l-.08,0c-2.47-1.07-5-2.05-7.54-2.92A96.85,96.85,0,0,0,327.38,188l-2.09-.22-.23,0a96.63,96.63,0,0,0-21.43.28c-1.47.18-2.92.41-4.37.66-1.12.18-2.24.37-3.35.59-2.84.56-5.63,1.24-8.38,2.06A92.72,92.72,0,0,1,293.32,182.41ZM276.37,365.17c-.73-.37-1.46-.75-2.18-1.14a92.66,92.66,0,0,1-10.09-6.33c-.4-.29-.8-.58-1.19-.88l-.67-.51c-.61-.47-1.21-1-1.81-1.45q-2.37-2-4.62-4.09a92.12,92.12,0,0,1-8.1-8.66c-.43-.53-.86-1.06-1.28-1.6-.15-.19-.46-.6-.51-.68-.31-.4-.6-.79-.89-1.19-1.16-1.62-2.27-3.26-3.34-4.94A96.8,96.8,0,0,1,236,323.2c-.21-.46-.42-.92-.61-1.38,0-.09-.24-.54-.35-.77-.26-.66-.53-1.3-.78-1.94-.79-2-1.5-4.11-2.15-6.21a91.26,91.26,0,0,1-2.78-11.67c-.14-.79-.26-1.58-.37-2.37,0-.28-.1-.77-.12-.88-.06-.51-.12-1-.16-1.56-.22-2.08-.36-4.19-.43-6.29a96.81,96.81,0,0,1,.34-11.92c.1-.95.21-1.9.32-2.86v-.09c.06-.37.12-.75.17-1.12.32-2,.7-4.06,1.15-6.06a93,93,0,0,1,2.95-10.34c.54-1.6,1.15-3.17,1.79-4.72.07-.14.66-1.49.78-1.77.4-.9.83-1.8,1.28-2.69a90.09,90.09,0,0,1,5.45-9.55c.9-1.4,1.86-2.78,2.84-4.12.27-.38.55-.74.81-1.12a4.29,4.29,0,0,0,.37-.47c.6-.75,1.19-1.48,1.8-2.21a99.1,99.1,0,0,1,7.15-7.62c1.32-1.26,2.68-2.48,4.06-3.66.58-.49,1.17-1,1.76-1.44.2-.16.39-.32.59-.46a.07.07,0,0,1,0,0l.07-.06a.57.57,0,0,1,.15-.12h0l.76-.6a96.38,96.38,0,0,1,18.69-10.81l1.43-.6c.86-.33,1.73-.67,2.6-1,1.75-.64,3.53-1.21,5.31-1.74a91.58,91.58,0,0,1,11-2.51l1.4-.23.79-.09c.61-.09,1.24-.16,1.86-.23,2.09-.2,4.17-.36,6.27-.43a96,96,0,0,1,12.35.36c1,.09,2,.21,2.93.32.3.06.84.13.94.14.54.09,1.08.17,1.61.27,2.15.37,4.28.82,6.39,1.33a93.42,93.42,0,0,1,12.25,3.93c.1,0,.74.29.93.38l.73.32.64.28,1.69.79c.32.15.64.3,1,.47.64.31,1.28.64,1.92,1l1.18.61,1.17.64c1.44.82,2.88,1.66,4.28,2.53.15.1.29.2.43.28,1.5.94,3,1.93,4.4,3,.41.29.8.58,1.2.89l.83.62c.73.57,1.45,1.16,2.16,1.74.89.74,1.75,1.49,2.59,2.27s1.81,1.68,2.7,2.54c2.42,2.36,4.7,4.85,6.89,7.42l0,0s0,0,0,0l1.93,2.36,3,3.67,3.44,4.18q9.27,11.34,18.54,22.66,3.36,4.11,6.72,8.2,9.53,11.65,19.05,23.27l20.95,25.6c1.51,1.84,3,3.75,4.51,5.64l-10.32,3.72q-20.81,7.53-41.6,15c-.82.29-1.63.6-2.43.89l-29.65,10.7-2.86,1-6.12,2.21q-9,3.23-18,6.49a5.11,5.11,0,0,0-.62.22l-3.87,1.39a100.11,100.11,0,0,1-13.64,4l-.21.05c-1.53.32-3.05.59-4.62.83l-.3,0h-.08l-.17,0h-.05l-1,.11-.89.1-.94.08c-.95.09-1.89.16-2.84.21l-.87.06c-1.17.05-2.34.1-3.5.12h-.24c-1,0-2,0-2.93,0-1.59,0-3.16-.09-4.73-.2-1.14-.07-2.26-.17-3.4-.29l-.33,0-.42-.05-1-.12-.54-.08c-1.39-.21-2.77-.43-4.15-.69s-3-.64-4.51-1c-.39-.09-.79-.19-1.18-.3q-2-.51-3.93-1.11l-.66-.2c-.79-.25-1.57-.54-2.36-.81a6.41,6.41,0,0,0-2-.68c-.17-.07-.34-.11-.49-.16l-2.22-.88a.25.25,0,0,0-.11,0c-.16-.07-.31-.14-.46-.19s-.47-.21-.71-.32h0Q278.54,366.29,276.37,365.17Zm66.17,113.52q-3-1-6-2.25c-.2-.1-.44-.18-.66-.28l-1.11-.48c-1.06-.48-2.12-1-3.17-1.46A110.33,110.33,0,0,1,320.43,468c-1.81-1.15-3.58-2.34-5.32-3.61-.4-.29-.81-.58-1.21-.89-.08-.07-.32-.25-.54-.4,0,0,0,0,0,0h0s0,0,0,0,0,0,0,0a.33.33,0,0,0-.13-.11l0,0,0,0-.1-.09h0l-.53-.42L311,461.17a95.06,95.06,0,0,1-9.14-8.7q-2.19-2.37-4.21-4.89c-.05-.08-.28-.35-.46-.58s-.59-.75-.71-.92c-.65-.87-1.29-1.76-1.9-2.65a94.9,94.9,0,0,1-8.42-14.72l-.82-1.84s-.43-1-.5-1.21c-.54-1.35-1-2.7-1.51-4.06-1-2.72-1.8-5.49-2.5-8.28s-1.31-5.64-1.8-8.5c-.11-.67-.22-1.35-.32-2,0-.14,0-.29-.05-.43s-.07-.44-.08-.56c-.17-1.46-.32-2.9-.45-4.37A116.69,116.69,0,0,1,278,379.9c0-.22,0-.44.05-.66l2,.82c1.83,2.87,3.67,5.73,5.49,8.61q8.16,12.84,16.34,25.66l19.76,31q8.58,13.49,17.17,26.95l4.07,6.49Zm67.29,5.66a2.45,2.45,0,0,0-.35,0h-.07a.23.23,0,0,1-.11,0h-.11l-1.75.22c-1.34.16-2.67.29-4,.42q-3.58.36-7.17.54-7.31.4-14.61.15c-4.65-.16-9.29-.55-13.92-1.11l-.28,0-.19,0-1.6-.23c-1.22-.18-2.44-.39-3.65-.61s-2.34-.44-3.5-.69a5.39,5.39,0,0,0-.8-3.62l-6.83-10.76q-8.17-12.81-16.34-25.65l-19.76-31-17.17-27,0,0a98.68,98.68,0,0,0,20.52,1.61l.75,0c1,0,2.07-.08,3.11-.15,2.63-.15,5.24-.43,7.85-.81,1.06-.14,2.1-.3,3.16-.48l1-.18a90.46,90.46,0,0,0,9.59-2.32c.19-.05.4-.06.59-.12,2.39-.72,4.74-1.55,7.08-2.45l5.47,8.61L373,414.33l19.76,31q8.58,13.49,17.17,26.95c2.3,3.62,4.56,7.27,6.91,10.87Q413.35,483.83,409.83,484.35Zm59.22-18.19c-2.44,1.17-4.88,2.31-7.34,3.39l-2,.87a.81.81,0,0,1-.21.1c-.19.09-.54.22-.62.27-1.27.51-2.53,1-3.81,1.52q-7.55,3-15.3,5.35c-3.42,1-6.88,2-10.35,2.82a4.43,4.43,0,0,0-.51-1.05L422,468.67Q413.86,455.86,405.7,443l-19.76-31-17.17-27c-2-3.09-3.91-6.2-5.88-9.28,1.45-.53,2.89-1.06,4.34-1.57L406.6,360c1.42-.5,2.82-1,4.23-1.53q2.43,3.84,4.87,7.64,8.18,12.84,16.34,25.67,9.88,15.5,19.76,31,8.56,13.49,17.16,27c2.64,4.14,5.21,8.35,7.92,12.45C474.3,463.53,471.69,464.88,469.05,466.16Zm54.16-36.85q-3.93,3.63-8,7.07-1.95,1.65-4,3.25L509,441.41l-.33.27-1.17.89c-2.93,2.22-5.93,4.36-9,6.44-3.61,2.48-7.32,4.82-11.06,7.09-2.14-3.34-4.26-6.68-6.39-10q-8.18-12.84-16.34-25.66l-19.76-31q-8.58-13.49-17.16-26.95c-1.75-2.75-3.47-5.51-5.21-8.26l27.24-9.83c6.5-2.35,13-4.66,19.5-7q8.65,13.6,17.33,27.2l31.69,49.78,7.26,11.38a5.83,5.83,0,0,0,.61.8C525.22,427.42,524.22,428.38,523.21,429.31ZM561,382.54A193.17,193.17,0,0,1,550.31,399c-1,1.34-2,2.69-3,4-.1.13-.36.48-.46.6s-.25.32-.37.49l-1.82,2.29q-3.21,4-6.62,7.79c-1,1.17-2.11,2.32-3.18,3.48L516,388q-15.87-24.89-31.71-49.77c-2.42-3.79-4.82-7.6-7.24-11.39a6.57,6.57,0,0,0-.74-.93l-.22-.29c-2.79-3.42-5.58-6.82-8.38-10.24q-5.56-6.82-11.14-13.62c-.89-1.08-1.78-2.17-2.65-3.25-1.2-1.44-2.39-2.9-3.59-4.36L447.75,291q-12.17-14.84-24.32-29.69-5.18-6.35-10.34-12.65C408,242.44,403,236.19,397.93,230l-.41-.53c5-2.21,9.79-4.1,15.46-6.05A207.13,207.13,0,0,1,436.05,217c3.73-.8,7.5-1.5,11.28-2.08l2.67-.39h.11l.33,0,1.17-.15c2-.22,3.9-.43,5.86-.6,1.75-.15,3.49-.27,5.24-.37q4.28,6.7,8.54,13.41,12.39,19.49,24.79,38.94l29.89,46.94,25.84,40.58c4.2,6.59,8.3,13.27,12.6,19.79.06.1.13.18.19.28a6.29,6.29,0,0,0,.9,1.09Q563.33,378.5,561,382.54ZM581.69,316c-.11,2.82-.34,5.64-.64,8.46-.07.67-.15,1.35-.24,2,0,0,0,.09,0,.14,0,.25-.07.48-.1.72-.22,1.5-.46,3-.74,4.5A140,140,0,0,1,575.78,349c-.91,3-1.92,5.92-3,8.83-.44,1.18-.9,2.34-1.37,3.51l-6.69-10.49q-12.39-19.47-24.8-38.95Q525,288.48,510,265q-12.91-20.28-25.83-40.57c-2.4-3.77-4.76-7.55-7.14-11.31.84,0,1.67,0,2.5.07,3.53.15,7.05.44,10.55.84l1.37.17.21,0c.84.12,1.67.23,2.5.37,1.8.28,3.58.58,5.35,1a127.86,127.86,0,0,1,19.4,5.36c1.46.54,2.9,1.11,4.35,1.69l.18.07,0,0,1.18.51c.78.35,1.56.7,2.34,1.07q4.07,1.92,8,4.17c.63.35,1.24.72,1.85,1.08.88.53,1.75,1.07,2.61,1.63.59.37,1.18.75,1.75,1.14.95.62,1.88,1.28,2.8,1.94.61.43,1.22.85,1.82,1.31l.13.11.35.26a1.31,1.31,0,0,0,.15.12l1.31,1.05.75.63c1.31,1.08,2.59,2.21,3.84,3.37.19.17.36.35.55.53,1,1,2.09,2,3.09,3,.43.45.84.91,1.26,1.37.75.8,1.5,1.61,2.22,2.44s1.55,1.78,2.3,2.7c.21.26.4.51.61.76l.08.11.18.24c.89,1.17,1.72,2.37,2.56,3.58.39.57.79,1.14,1.17,1.73.65,1,1.27,2,1.89,3,.3.49.61,1,.9,1.48.89,1.53,1.75,3.08,2.54,4.67s1.56,3.15,2.27,4.75l0,.08.39.93c.08.22.21.5.27.68s.09.23.14.34c.17.46.34.9.52,1.36.32.83.61,1.69.9,2.54s.67,2,1,3c.22.71.43,1.42.64,2.14.27,1,.54,1.95.79,2.94.21.8.42,1.61.6,2.43s.43,2,.62,2.93.43,2.11.61,3.18c0,.25.09.52.14.78s0,.24.06.35c0,.26.07.52.11.79l.1.64c0,.29.06.57.09.86.18,1.42.32,2.83.43,4.25,0,.21,0,.43.05.64A118.15,118.15,0,0,1,581.69,316Zm74-68.94c-.07.79-.17,1.59-.25,2.39a.45.45,0,0,1,0,.11s0,.09,0,.16c-.08.48-.15.95-.22,1.41a66.06,66.06,0,0,1-2.6,10c-.27.72-.53,1.46-.81,2.16-.12.32-.26.64-.39,1a.77.77,0,0,1-.07.16c-.77,1.68-1.55,3.33-2.44,4.94-.74,1.34-1.53,2.66-2.35,3.93-.42.64-.85,1.27-1.28,1.89-.26.38-.53.75-.8,1.12-.07.11-.77,1-.77,1l-.23.28q-.42.54-.87,1c-.5.59-1,1.16-1.51,1.71-1.11,1.24-2.29,2.42-3.5,3.57s-2.5,2.21-3.79,3.28l-.12.09-.83.62c-.74.54-1.47,1.07-2.24,1.57a61.58,61.58,0,0,1-8.79,4.93c-.35.16-.71.3-1.06.48a0,0,0,0,0,0,0h0c-.73.28-1.45.57-2.17.83q-2.62,1-5.34,1.7c-1.82.49-3.67.89-5.53,1.22l-1.16.18-.44.07s0,0-.08,0q-1.44.17-2.88.27c-2.05.17-4.12.21-6.21.18-1.16,0-2.34-.09-3.51-.19a114.38,114.38,0,0,0-2.89-16.77,104.13,104.13,0,0,0-17.05-35.92c-.12-.16-.25-.32-.36-.48-.92-1.23-1.85-2.45-2.82-3.63l-.54-.64L568.27,240c-.23-.26-.48-.5-.7-.76-.68-.77-1.39-1.53-2.1-2.27s-1.16-1.25-1.78-1.86-1.2-1.18-1.82-1.76-1.52-1.45-2.3-2.14l-.43-.42-.85-.7c-1-.9-2.07-1.77-3.13-2.62l-1.37-1.07c-.93-.72-1.85-1.43-2.81-2.11s-1.83-1.3-2.76-1.93c-.42-.28-.82-.56-1.24-.82-.75-.5-1.5-1-2.27-1.49.16-.36.43-1,.45-1.07.26-.58.53-1.17.8-1.75a63.11,63.11,0,0,1,4.4-7.71c.66-1,1.37-2,2.08-2.93.11-.13.78-1,.94-1.2.5-.61,1-1.21,1.56-1.81a62.85,62.85,0,0,1,6.29-6.14c.49-.41,1-.82,1.48-1.22l.12-.1.73-.54c1.2-.9,2.45-1.75,3.73-2.56a61.6,61.6,0,0,1,6.48-3.54l.28-.14.84-.43c.27-.11,1.14-.47,1.21-.51.6-.24,1.21-.49,1.82-.71,1.36-.5,2.75-1,4.16-1.36a65.37,65.37,0,0,1,8.17-1.78c.14,0,1.41-.18,1.64-.2.75-.07,1.5-.13,2.26-.18,1.6-.11,3.2-.14,4.81-.12,1.36,0,2.74.07,4.11.18.71,0,1.43.11,2.14.19l.79.09.43.07a63.89,63.89,0,0,1,8.46,1.9c1.19.36,2.37.75,3.52,1.17.69.25,1.38.52,2.06.79l.08,0h0l.32.14s0,0,0,0,0,0,0,0l0,0h0l.6.26a64.9,64.9,0,0,1,7.24,3.91c1.08.68,2.16,1.39,3.21,2.14.41.29.82.59,1.22.9l1.32,1.06a62.74,62.74,0,0,1,5.93,5.6c.92,1,1.82,2,2.68,3.07l.74.93,1.06,1.44a64.43,64.43,0,0,1,4.82,8c.37.75.73,1.5,1.1,2.26.12.28.23.56.37.83a.45.45,0,0,0,.06.14.76.76,0,0,0,0,.11c.55,1.44,1.11,2.88,1.58,4.34a63.19,63.19,0,0,1,2.21,9.1c.07.39.11.78.18,1.17v0c.08.81.18,1.6.25,2.39.14,1.77.21,3.55.22,5.33S655.8,245.31,655.66,247.09ZM378.48,146.75h0l.06,0ZM313.09,462.91l0,0,.11.08A.33.33,0,0,0,313.09,462.91ZM562.44,252s0,0-.05-.06l.08.11A0,0,0,0,0,562.44,252Z"/><path class="cls-1" d="M621.05,188.74l-.47-.22h0Z"/><path class="cls-1" d="M609.13,204.52a8.22,8.22,0,1,0,8.21,8.22A8.21,8.21,0,0,0,609.13,204.52Z"/><path class="cls-1" d="M276,460.94l-21,13.75-33.5,21.94-7.74,5.07c-2.66,1.74-4,5.46-2.18,8.32,1.71,2.65,5.47,4,8.31,2.18l21-13.75,33.49-21.94,7.75-5.08c2.65-1.74,4-5.46,2.18-8.31C282.59,460.47,278.83,459.07,276,460.94Z"/><path class="cls-1" d="M215.81,491.82,243.24,474l3.9-2.54c2.66-1.73,4-5.46,2.18-8.31-1.71-2.66-5.46-4-8.32-2.18l-27.42,17.84-3.91,2.54c-2.66,1.73-4,5.47-2.18,8.32C209.2,492.3,213,493.67,215.81,491.82Z"/><path class="cls-1" d="M225.17,459.12l33.66-22,4.81-3.15c2.66-1.74,4-5.46,2.18-8.31-1.71-2.66-5.47-4-8.32-2.19l-33.66,22L219,448.62c-2.66,1.74-4,5.46-2.18,8.31C218.56,459.59,222.32,461,225.17,459.12Z"/><path class="cls-1" d="M212.43,467.45c2.65-1.74,4-5.47,2.18-8.32-1.71-2.65-5.47-4-8.32-2.18l-17,11.11-2.46,1.6c-2.65,1.74-4,5.47-2.18,8.32,1.71,2.66,5.47,4,8.32,2.18l17-11.11Z"/></svg>