<svg id="Capa_1" data-name="Capa 1" xmlns="http://www.w3.org/2000/svg" viewBox="0 0 841.89 595.28"><defs><style>.cls-1{fill:#222221;}</style></defs><path class="cls-1" d="M29.81,277.48H63.2v3.63h-8a3.56,3.56,0,0,0-2.79,1,4.54,4.54,0,0,0-.9,3.12v56.51a3.35,3.35,0,0,0,1.14,2.88c.76.57,2.29.85,4.59.85H67.36a17.43,17.43,0,0,0,13.19-5.35q5.13-5.36,7.47-18.57h3.4L89.77,349.1h-60v-3.63H35.7q3,0,4.23-1.14a4.74,4.74,0,0,0,1.22-3.65V284.75a3.49,3.49,0,0,0-1-2.72,4.4,4.4,0,0,0-3-.92h-7.3Z"/><path class="cls-1" d="M138.81,326.73H106.16q.24,10.36,3.89,14.62a13.51,13.51,0,0,0,10.66,4.8q9.54,0,15.33-10.8l3.16,1.36q-7.11,13.74-20.54,13.75a20.4,20.4,0,0,1-15.4-6.59Q97,337.29,97,327q0-11,6.15-17.84a19.65,19.65,0,0,1,15.16-6.81,19.37,19.37,0,0,1,11.44,3.39A20.47,20.47,0,0,1,137,315.5,32.86,32.86,0,0,1,138.81,326.73Zm-32.65-3.44h19.75a3.34,3.34,0,0,0,2.73-1.18,6.49,6.49,0,0,0,1-4.05,13.09,13.09,0,0,0-3.33-9.05,10.21,10.21,0,0,0-7.86-3.73,10.59,10.59,0,0,0-8.59,4.5Q106.31,314.28,106.16,323.29Z"/><path class="cls-1" d="M227.17,283.05l3.35-6.92h3.07l1.27,28.81h-3.27q-3.21-12.15-8.07-17.92-6-7.22-14.41-7.21-9,0-14.74,8t-5.7,27.22q0,16.13,6.52,24.6,5.55,7.17,15.58,7.17a20.6,20.6,0,0,0,14.69-5.6q5.94-5.6,7.74-16.87h3.46q-1.51,12.78-8.81,19.66t-18.4,6.87a31.57,31.57,0,0,1-16.52-4.5,32.49,32.49,0,0,1-12-12.95,38.82,38.82,0,0,1-4.5-18.53,44.67,44.67,0,0,1,4.65-20.09q4.63-9.4,11.9-14.12A28.06,28.06,0,0,1,208.58,276a26.11,26.11,0,0,1,9,1.6A38,38,0,0,1,227.17,283.05Z"/><path class="cls-1" d="M265.85,302.37A20.45,20.45,0,0,1,281.3,309q6.24,6.61,6.25,17.41a26.66,26.66,0,0,1-2.8,12.71,20.78,20.78,0,0,1-8,8.31,21.67,21.67,0,0,1-11.17,3,19.65,19.65,0,0,1-15-6.68q-6.17-6.69-6.16-17.34t6.18-17.38A19.93,19.93,0,0,1,265.85,302.37Zm0,3.44q-5.46,0-9,4.92t-3.5,15.52q0,10.8,3.48,15.78t9,5a10.82,10.82,0,0,0,9.22-5q3.53-5,3.53-16.32,0-10.5-3.48-15.2A11,11,0,0,0,265.85,305.81Z"/><path class="cls-1" d="M311,276.66v65.76a2.62,2.62,0,0,0,.82,2.08,4.61,4.61,0,0,0,3,1h4.82v3.63H293.77v-3.63h4.57a4.62,4.62,0,0,0,3.34-1.06,4,4,0,0,0,1.09-3V286.2a4.42,4.42,0,0,0-1.31-3.54,6.57,6.57,0,0,0-4.43-1.55h-4.09v-3.63Z"/><path class="cls-1" d="M342,276.66v65.76a2.62,2.62,0,0,0,.82,2.08,4.59,4.59,0,0,0,3,1h4.82v3.63H324.76v-3.63h4.57a4.62,4.62,0,0,0,3.34-1.06,4,4,0,0,0,1.09-3V286.2a4.42,4.42,0,0,0-1.31-3.54,6.57,6.57,0,0,0-4.43-1.55h-4.09v-3.63Z"/><path class="cls-1" d="M398.53,326.73H365.87q.24,10.36,3.89,14.62a13.53,13.53,0,0,0,10.66,4.8q9.54,0,15.33-10.8l3.16,1.36q-7.1,13.74-20.53,13.75a20.39,20.39,0,0,1-15.4-6.59q-6.25-6.58-6.26-16.85,0-11,6.16-17.84A19.64,19.64,0,0,1,378,302.37a19.34,19.34,0,0,1,11.43,3.39,20.41,20.41,0,0,1,7.25,9.74A33.08,33.08,0,0,1,398.53,326.73Zm-32.66-3.44h19.76a3.32,3.32,0,0,0,2.72-1.18,6.48,6.48,0,0,0,1-4.05A13.05,13.05,0,0,0,386,309a10.21,10.21,0,0,0-7.86-3.73,10.57,10.57,0,0,0-8.58,4.5Q366,314.28,365.87,323.29Z"/><path class="cls-1" d="M440,335.64l3.16.92q-3.79,13.9-16.74,13.9-9.49,0-15.52-6.25t-6-16.61q0-12,6.62-18.62a21.34,21.34,0,0,1,15.57-6.61,16.68,16.68,0,0,1,11.1,3.68c2.92,2.46,4.38,5.18,4.38,8.19a6.4,6.4,0,0,1-1.63,4.48,5.12,5.12,0,0,1-3.87,1.76,5.07,5.07,0,0,1-3.7-1.49,4.91,4.91,0,0,1-1.51-3.62,6.14,6.14,0,0,1,1.66-4.06,2.65,2.65,0,0,0,.77-1.45c0-.93-.63-1.84-1.89-2.72a8.85,8.85,0,0,0-5.16-1.33q-5.94,0-9,4.3-4.37,6.25-4.37,16.45,0,9.72,3.89,14.73a12,12,0,0,0,9.93,5Q436,346.29,440,335.64Z"/><path class="cls-1" d="M461,285.23h3.26v18.5h14.75v4.45H464.3v29.11a8.37,8.37,0,0,0,1.8,5.78,5.88,5.88,0,0,0,4.58,2,6.91,6.91,0,0,0,5.64-3.05q2.34-3,2.73-10.07h3.26q-.3,9.06-4.14,13.44a12.65,12.65,0,0,1-10,4.38c-3.76,0-6.71-1-8.83-3.07a10.72,10.72,0,0,1-3.19-8.07V308.18h-7.93v-3.39a12.75,12.75,0,0,0,8.26-4.5Q460.7,294.92,461,285.23Z"/><path class="cls-1" d="M530.18,326.73H497.53q.24,10.36,3.89,14.62a13.51,13.51,0,0,0,10.66,4.8q9.54,0,15.33-10.8l3.16,1.36q-7.11,13.74-20.54,13.75a20.4,20.4,0,0,1-15.4-6.59q-6.25-6.58-6.25-16.85,0-11,6.15-17.84a19.65,19.65,0,0,1,15.16-6.81,19.35,19.35,0,0,1,11.44,3.39,20.47,20.47,0,0,1,7.25,9.74A32.86,32.86,0,0,1,530.18,326.73Zm-32.65-3.44h19.76a3.33,3.33,0,0,0,2.72-1.18,6.49,6.49,0,0,0,1-4.05,13.09,13.09,0,0,0-3.33-9.05,10.21,10.21,0,0,0-7.86-3.73,10.59,10.59,0,0,0-8.59,4.5Q497.68,314.28,497.53,323.29Z"/><path class="cls-1" d="M552.46,302.9V333q0,5.52,2.79,8.52a9.42,9.42,0,0,0,7.22,3,11.85,11.85,0,0,0,9.25-4.38,16.12,16.12,0,0,0,3.81-11v-17a4.26,4.26,0,0,0-1.68-3.6q-1.68-1.29-6.45-1.43v-3.39l16-.83v37.24a5.18,5.18,0,0,0,1.46,3.95,5.72,5.72,0,0,0,4.09,1.38h2.87v3.25l-15.33.33-1-8.91a32.89,32.89,0,0,1-8.21,7.22,16.43,16.43,0,0,1-8.36,2.42,14.16,14.16,0,0,1-10.35-4.12q-4.23-4.07-4.23-13.8V312.15a4.45,4.45,0,0,0-2.09-4c-1-.64-3-1-6-1.06v-3.39Z"/><path class="cls-1" d="M596.59,303.73l16.4-.83v18.36q2.63-9.06,6.33-13.71a11.26,11.26,0,0,1,9.15-4.65,7.94,7.94,0,0,1,5.91,2.26,8.25,8.25,0,0,1,2.21,6,7,7,0,0,1-1.48,4.74,4.74,4.74,0,0,1-3.72,1.7,4.57,4.57,0,0,1-3.53-1.46,5.52,5.52,0,0,1-1.34-3.92,6.1,6.1,0,0,1,.78-3,6,6,0,0,0,.73-1.5c0-.49-.31-.73-.93-.73q-2,0-4.52,2.33a20.78,20.78,0,0,0-5.4,8.91q-2.92,8.81-2.92,14.09v9.73a2.94,2.94,0,0,0,1.16,2.52,6.89,6.89,0,0,0,4,.87h5.79v3.63H596.88v-3.63h4.53a5.59,5.59,0,0,0,3.45-.9,2.63,2.63,0,0,0,1.17-2.15V313.51q0-3.28-1.41-4.82a5.22,5.22,0,0,0-4-1.52h-4Z"/><path class="cls-1" d="M724,272.08h0Zm0,0h0Zm74.59,9.85a21,21,0,0,0-16.36-1.31l-2-7.23q-2.06-7.27-4.1-14.57l-.53-1.88a5,5,0,0,0,1.08-1,5.65,5.65,0,1,0-6.13,1.64,5.42,5.42,0,0,0,1.59.32q1.08,3.84,2.17,7.69,1.74,6.18,3.49,12.38c-1-.79-1.92-1.59-2.88-2.37q-5.92-4.89-11.84-9.78l-1.67-1.39a5.62,5.62,0,0,0-.3-5.09,5.66,5.66,0,1,0-6.74,8.22,5.62,5.62,0,0,0,4.68-.44l6.19,5.11L777.05,282c.27.23.54.46.82.68-.39.25-.76.51-1.13.78A21.15,21.15,0,0,0,770,292a40.68,40.68,0,0,0-12.89-3.65,47.09,47.09,0,0,0-7.22-.28c-1.31-2-2.63-3.91-3.94-5.86a31.6,31.6,0,0,0-10.73-10.12,30.37,30.37,0,0,0-42.39,13.78c-.2.43-.38.87-.56,1.31a29.44,29.44,0,0,0-1.33,51.86h0A34.07,34.07,0,0,0,694,358l-5.51,3.59-1,.64a1.8,1.8,0,1,0,1.81,3.11l6.49-4.23a31.24,31.24,0,0,0,10.54,9.78,39.63,39.63,0,0,0,16.06,4.78,53.63,53.63,0,0,0,18.23-1.68,66.08,66.08,0,0,0,18.46-8.08c.72-.46,1.44-.94,2.16-1.42a66.62,66.62,0,0,0,18.32-18.6,49.32,49.32,0,0,0,7.86-21.54q.18-1.8.18-3.63a20.65,20.65,0,0,0,11.94-2.9,21,21,0,0,0,8.54-10.19,20.23,20.23,0,0,0,1.4-7.45A20.8,20.8,0,0,0,798.6,281.93Zm-26.21-27.48a2.19,2.19,0,1,1,2.18-2.19A2.18,2.18,0,0,1,772.39,254.45Zm-16.18,10a2.18,2.18,0,1,1,2.18-2.18A2.17,2.17,0,0,1,756.21,264.42Zm-57.35,18.19.23-.29v0a0,0,0,0,0,0,0l0,0,.09-.13c.21-.26.42-.52.64-.77.4-.47.82-.92,1.25-1.37a29,29,0,0,1,2.79-2.52l.08-.06h0l.34-.25.81-.58c.51-.34,1-.68,1.56-1A29,29,0,0,1,710,273.9l.18-.08.47-.18.88-.32c.61-.21,1.23-.4,1.85-.57s1.22-.3,1.84-.43l.93-.17.43-.07.21,0h0a30.94,30.94,0,0,1,3.85-.21c.68,0,1.36,0,2,.1l.92.09.36.05h0l.44.07a28.93,28.93,0,0,1,4.09,1c.64.21,1.28.43,1.91.68l.32.13.32.15c.31.13.61.27.91.42a29,29,0,0,1,3.5,2l.81.57.37.28,0,0,.13.1c.53.43,1,.87,1.55,1.33a28,28,0,0,1,2.7,2.86l.34.41a.44.44,0,0,0,.08.11c.22.29.42.57.63.86l.45.65q1.56,2.34,3.13,4.66a57.89,57.89,0,0,0-11.5,2.53,65.52,65.52,0,0,0-7,2.72,28.82,28.82,0,0,0-7.05-5.67c-.55-.32-1.11-.61-1.68-.9l-.08,0-.68-.32-.57-.25-.06,0h0c-.73-.31-1.48-.6-2.23-.86a28.87,28.87,0,0,0-5.93-1.32l-.62-.07h-.07a27.85,27.85,0,0,0-6.32.08c-.44.05-.86.12-1.29.19l-1,.18c-.84.16-1.66.36-2.48.6A28,28,0,0,1,698.86,282.61Zm-5,54-.65-.34a26.93,26.93,0,0,1-3-1.87l-.36-.26-.19-.15c-.19-.14-.36-.28-.54-.43-.47-.39-.92-.79-1.36-1.21a28.94,28.94,0,0,1-2.4-2.55l-.37-.47-.16-.21c-.09-.11-.17-.23-.26-.35-.34-.47-.67-1-1-1.46a27.29,27.29,0,0,1-1.69-3.1l-.18-.4-.1-.23c-.08-.2-.16-.38-.23-.57-.24-.61-.44-1.22-.64-1.84a27.3,27.3,0,0,1-.82-3.44c0-.24-.08-.47-.11-.71,0-.08,0-.22,0-.25s0-.31-.05-.46c-.07-.62-.11-1.24-.13-1.86a29.5,29.5,0,0,1,.1-3.52c0-.28.07-.56.1-.85v0l0-.33c.09-.6.2-1.2.34-1.79a27.31,27.31,0,0,1,.87-3.06c.16-.47.34-.93.53-1.39,0,0,.19-.44.23-.52.12-.27.24-.54.37-.8a28.08,28.08,0,0,1,1.61-2.82c.27-.41.55-.82.84-1.22l.24-.32.11-.14.53-.66a30,30,0,0,1,2.12-2.25c.38-.37.79-.73,1.19-1.08l.52-.42.18-.14h0l0,0h0l.23-.18a27.81,27.81,0,0,1,5.52-3.19l.42-.18.77-.29c.51-.19,1-.35,1.56-.51a28,28,0,0,1,3.26-.74l.41-.07.24,0,.55-.06c.61-.06,1.23-.11,1.85-.13a27.67,27.67,0,0,1,3.64.11c.29,0,.58.06.87.09l.27,0,.48.08c.64.11,1.26.24,1.89.39a27.27,27.27,0,0,1,3.62,1.17l.27.11.21.09.19.08.5.24.29.14.57.28.35.18.34.19q.64.36,1.26.75l.13.08c.44.28.88.57,1.3.88l.35.26a2.88,2.88,0,0,1,.25.18l.64.52c.26.21.51.43.76.66s.54.5.8.76c.71.69,1.39,1.43,2,2.19h0c.18.23.38.46.57.69l.88,1.09,1,1.23,5.47,6.69,2,2.42,5.63,6.88q3.09,3.78,6.19,7.55l1.33,1.67-3.05,1.1-12.28,4.44-.72.26-8.76,3.16-.84.31-1.81.65-5.31,1.91-.18.07-1.14.41a30.35,30.35,0,0,1-4,1.17l-.06,0c-.45.09-.9.17-1.37.24h-.17l-.3,0-.26,0-.28,0c-.28,0-.55.05-.83.06l-.26,0-1,0H705c-.47,0-.93,0-1.4-.06l-1-.08h-.1l-.12,0-.29,0-.16,0c-.41-.06-.82-.12-1.22-.2s-.89-.19-1.34-.3l-.35-.09c-.39-.1-.77-.21-1.16-.33l-.19-.06-.7-.24a2,2,0,0,0-.58-.2l-.14-.05-.66-.25,0,0-.14-.05-.21-.1h0C694.72,337,694.28,336.8,693.86,336.58ZM713.4,370.1c-.6-.21-1.19-.43-1.78-.67l-.19-.08-.33-.14-.94-.43a34,34,0,0,1-3.29-1.83c-.53-.34-1.06-.69-1.57-1.06l-.36-.27-.16-.12h0s0,0,0,0h0s0,0,0,0h0l-.16-.12-.44-.36a28.55,28.55,0,0,1-2.7-2.57c-.43-.47-.84-.95-1.24-1.45l-.14-.17-.21-.27-.56-.78a28,28,0,0,1-2.49-4.35l-.24-.55-.15-.35c-.16-.4-.3-.8-.44-1.2-.29-.8-.53-1.62-.74-2.45s-.39-1.66-.53-2.51c0-.19-.07-.39-.09-.59a.59.59,0,0,1,0-.13s0-.13,0-.16c0-.43-.09-.86-.13-1.3a34.31,34.31,0,0,1,0-5.17c0-.07,0-.13,0-.2l.6.24,1.62,2.55,4.83,7.57,5.83,9.17,5.07,8,1.2,1.91Zm19.87,1.67-.11,0h-.08l-.52.07-1.18.12c-.71.07-1.41.13-2.12.16-1.43.08-2.87.1-4.31.05s-2.74-.17-4.11-.33h-.14l-.47-.07c-.36,0-.72-.12-1.08-.18l-1-.2a1.58,1.58,0,0,0-.23-1.07l-2-3.18L711,359.57l-5.84-9.17-5.07-8h0a28.65,28.65,0,0,0,6.06.47h.22l.92,0c.78,0,1.55-.13,2.32-.24l.93-.14.29-.05a27.15,27.15,0,0,0,2.83-.69l.18,0c.7-.21,1.4-.46,2.09-.73.53.85,1.08,1.7,1.61,2.55l4.83,7.57,5.83,9.17,5.07,8c.68,1.06,1.35,2.14,2,3.2C734.65,371.55,734,371.67,733.27,371.77Zm17.48-5.37c-.71.34-1.44.68-2.16,1l-.6.26-.06,0-.19.07-1.12.46c-1.49.58-3,1.11-4.52,1.58-1,.3-2,.57-3.06.83a.89.89,0,0,0-.15-.31c-.67-1.06-1.34-2.12-2-3.18l-4.82-7.57-5.84-9.17-5.07-8-1.73-2.74,1.28-.46q5.8-2.12,11.62-4.2l1.25-.46,1.44,2.26,4.83,7.58,5.83,9.16,5.07,8c.78,1.22,1.54,2.47,2.34,3.68C752.3,365.62,751.53,366,750.75,366.4Zm16-10.88c-.77.71-1.57,1.41-2.38,2.09l-1.16,1-.67.52-.1.08-.34.26c-.87.66-1.75,1.29-2.65,1.91-1.07.73-2.16,1.42-3.26,2.09-.64-1-1.26-2-1.89-3l-4.83-7.58q-2.91-4.59-5.83-9.16l-5.07-8c-.52-.81-1-1.63-1.54-2.44l8-2.9,5.77-2.08q2.55,4,5.11,8,4.68,7.33,9.36,14.7l2.14,3.36.18.23Zm11.16-13.81c-1,1.67-2,3.29-3.16,4.86-.29.4-.58.79-.88,1.18l-.13.18-.11.14-.54.68c-.63.79-1.28,1.55-2,2.3-.31.35-.63.69-.94,1q-2.79-4.36-5.57-8.75l-9.36-14.7c-.72-1.12-1.43-2.24-2.14-3.36a2,2,0,0,0-.22-.27l-.06-.09c-.83-1-1.65-2-2.48-3q-1.64-2-3.29-4l-.78-1c-.36-.42-.71-.85-1.06-1.28l-.78-.95q-3.59-4.38-7.18-8.77-1.51-1.87-3-3.73c-1.5-1.83-3-3.68-4.48-5.51l-.12-.16c1.47-.65,2.89-1.21,4.57-1.78a59.27,59.27,0,0,1,6.81-1.91c1.1-.24,2.21-.44,3.33-.61l.79-.12h.13l.34-.05,1.74-.18,1.54-.11q1.26,2,2.53,4,3.65,5.76,7.32,11.5l8.82,13.86,7.63,12c1.24,1.94,2.45,3.92,3.72,5.84l.06.08a2.1,2.1,0,0,0,.26.33C778.8,340.1,778.37,340.91,777.91,341.71ZM784,322.07c0,.83-.1,1.66-.19,2.49,0,.2-.05.4-.07.6v0l0,.21c-.06.45-.13.89-.21,1.33a43.59,43.59,0,0,1-1.24,5.07c-.27.88-.56,1.75-.88,2.61l-.41,1-2-3.1q-3.68-5.75-7.33-11.5L762.86,307q-3.83-6-7.63-12c-.71-1.11-1.41-2.23-2.11-3.34l.74,0c1,.05,2.08.13,3.11.25l.41.05h.06l.74.11,1.58.28a39.59,39.59,0,0,1,5.73,1.59l1.28.5.05,0h0l.35.15.68.32c.8.38,1.59.79,2.36,1.23l.55.32.77.48c.17.11.35.22.51.34s.56.38.83.57l.54.39,0,0,.1.08,0,0,.39.31.22.19c.39.32.77.65,1.13,1l.17.16c.31.3.61.59.91.9.13.13.25.27.37.4s.45.48.66.72l.68.8.18.23,0,0,0,.07c.27.34.51.7.76,1.06.11.16.23.33.34.51s.38.59.56.89l.27.43c.26.46.52.92.75,1.38s.46.93.67,1.41v0l.12.28.08.2,0,.1.15.4c.1.24.18.5.27.75s.19.58.29.88.13.41.19.63.16.57.23.86l.18.72.18.87c.06.31.13.62.18.94a1.57,1.57,0,0,1,0,.23s0,.07,0,.1l0,.23a.89.89,0,0,1,0,.19l0,.26c.05.41.09.83.13,1.25V318A36.49,36.49,0,0,1,784,322.07Zm21.84-20.36c0,.23-.05.47-.07.7a.06.06,0,0,1,0,0,.13.13,0,0,1,0,.05l-.06.41a20,20,0,0,1-.77,2.95l-.24.64c0,.09-.08.19-.11.28s0,0,0,.05c-.23.49-.46,1-.72,1.46s-.46.78-.7,1.16c-.12.19-.25.37-.38.56l-.23.33-.23.3s-.07.07-.07.08L802,311l-.45.5c-.33.37-.68.72-1,1.06l-1.12,1,0,0-.24.19-.66.46a20.1,20.1,0,0,1-2.6,1.46,2.12,2.12,0,0,0-.31.14h0l-.64.25c-.52.18-1,.35-1.58.5s-1.08.26-1.63.36l-.34.05-.13,0h0l-.85.08c-.6,0-1.21.06-1.83,0l-1-.06a33.26,33.26,0,0,0-.85-4.95,30.79,30.79,0,0,0-5-10.61l-.1-.14c-.27-.36-.55-.72-.84-1.07a1.46,1.46,0,0,0-.16-.19c-.13-.17-.27-.33-.42-.5s-.14-.15-.2-.23l-.62-.67-.53-.55c-.17-.17-.35-.35-.54-.52l-.68-.63-.12-.12-.25-.21c-.31-.26-.61-.52-.93-.77l-.4-.32L775,295c-.27-.2-.54-.38-.82-.57l-.36-.25-.67-.43c0-.11.12-.3.13-.32l.24-.52a17.47,17.47,0,0,1,1.29-2.27c.2-.3.41-.58.62-.87,0,0,.23-.3.28-.35l.46-.54a18.72,18.72,0,0,1,1.86-1.81l.43-.36,0,0,.21-.16q.54-.4,1.11-.75a16.83,16.83,0,0,1,1.91-1.05l.08,0,.25-.13.36-.15.53-.21c.41-.15.82-.28,1.23-.4a19.93,19.93,0,0,1,2.41-.53l.49-.06.67-.05c.47,0,.94,0,1.42,0l1.21.06q.31,0,.63.06l.24,0,.12,0a19.23,19.23,0,0,1,2.5.56c.35.11.7.22,1,.35l.61.23h0l.09,0h0l.18.07a20,20,0,0,1,2.13,1.16c.32.2.64.41.95.63l.36.26.39.32a18.17,18.17,0,0,1,1.75,1.65c.27.3.54.59.8.91l.21.27.32.43a19.42,19.42,0,0,1,1.42,2.36c.11.22.22.44.32.67s.07.16.11.25l0,0v0c.17.42.33.85.47,1.28a19.16,19.16,0,0,1,.65,2.69l.06.34h0c0,.24.05.47.07.71,0,.52.06,1,.07,1.57S805.9,301.18,805.86,301.71ZM724,272.08h0ZM704.7,365.44h0l0,0S704.71,365.45,704.7,365.44Zm73.63-62.29h0l0,0Z"/><path class="cls-1" d="M795.64,284.48l-.14-.07h0Z"/><path class="cls-1" d="M792.12,289.14a2.43,2.43,0,1,0,2.42,2.42A2.43,2.43,0,0,0,792.12,289.14Z"/><path class="cls-1" d="M693.74,364.86l-6.2,4.06-9.89,6.48-2.28,1.49a1.79,1.79,0,1,0,1.81,3.1l6.2-4.06,9.89-6.48,2.28-1.49a1.79,1.79,0,1,0-1.81-3.1Z"/><path class="cls-1" d="M676,374l8.1-5.26,1.16-.75a1.84,1.84,0,0,0,.64-2.46,1.82,1.82,0,0,0-2.46-.64l-8.1,5.26-1.15.75a1.84,1.84,0,0,0-.64,2.46A1.81,1.81,0,0,0,676,374Z"/><path class="cls-1" d="M678.74,364.32l9.94-6.5,1.42-.93a1.79,1.79,0,0,0-1.81-3.1l-9.94,6.5-1.42.93a1.79,1.79,0,1,0,1.81,3.1Z"/><path class="cls-1" d="M675,366.78a1.8,1.8,0,1,0-1.82-3.1l-5,3.28-.73.47a1.79,1.79,0,0,0,1.81,3.1l5-3.28Z"/></svg>